<svg version="1.0" xmlns="http://www.w3.org/2000/svg"
 width="200.000000pt" height="200.000000pt" viewBox="0 0 196.000000 202.000000"
 preserveAspectRatio="xMidYMid meet">
<g transform="translate(0.000000,202.000000) scale(0.100000,-0.100000)"
fill="#000000" stroke="none">
<path d="M1170 1899 c-30 -56 -56 -107 -58 -114 -2 -9 -54 -14 -188 -20 -102
-4 -187 -5 -188 -3 -46 59 -116 160 -116 167 0 5 -6 14 -14 20 -11 10 -17 3
-31 -36 -9 -26 -21 -56 -26 -65 -17 -33 -128 -360 -156 -458 -93 -334 -159
-679 -170 -889 -5 -101 12 -185 45 -226 28 -34 86 -74 131 -90 135 -47 548
-63 806 -31 232 29 318 61 370 135 30 42 30 45 29 162 -2 118 -9 180 -46 394
-10 61 -20 121 -22 135 -2 14 -8 45 -14 70 -6 25 -16 72 -22 105 -7 33 -16 71
-22 85 -5 14 -16 54 -23 90 -23 112 -120 427 -165 535 -7 17 -18 44 -25 60 -7
17 -15 39 -17 49 -7 40 -25 23 -78 -75z m102 -84 c59 -163 136 -406 143 -450
2 -11 13 -59 26 -108 12 -48 20 -89 17 -92 -7 -8 -173 -45 -246 -55 -35 -5
-66 -12 -71 -14 -4 -3 -70 -13 -147 -23 -101 -13 -207 -17 -385 -17 -135 1
-250 4 -256 7 -6 4 0 46 18 114 36 140 79 293 89 318 4 11 23 65 41 120 17 55
45 132 61 170 15 39 28 80 28 93 0 12 3 22 8 21 4 0 32 -40 64 -87 l56 -87
184 3 c100 1 192 5 203 7 14 3 36 35 69 100 27 53"/>
<path d="M650 1460 c-25 -46 23 -88 61 -54 24 21 24 36 1 57 -25 23 -49 21
-62 -3z"/>
<path d="M1122 1468 c-32 -32 4 -87 48 -73 38 12 20 85 -20 85 -9 0 -21 -5
-28 -12z"/>
<path d="M880 1420 c0 -6 7 -13 15 -16 42 -17 -9 -53 -56 -41 -15 4 -19 1 -17
-11 5 -26 47 -26 81 -2 27 20 31 21 39 6 11 -20 102 -24 95 -3 -2 6 -11 11
-18 9 -27 -7 -79 9 -79 23 0 8 5 15 10 15 6 0 10 7 10 15 0 11 -11 15 -40 15
-22 0 -40 -5 -40 -10z"/>
</g>
</svg>
